<svg width="32" height="32" viewBox="0 0 32 32" xmlns="http://www.w3.org/2000/svg">
  <title>Shape</title>
  <path d="M32 16c0 8.836-7.164 16-16 16S0 24.836 0 16 7.164 0 16 0s16 7.164 16 16zm-24.312-.786A22.82 22.82 0 0 1 8.8 8.85l-5.344-.007a14.364 14.364 0 0 0-1.875 6.37H7.69zm7.53-6.37h-4.763a21.125 21.125 0 0 0-1.206 6.37h5.97v-6.37zm0-7.264c-1.68 1.503-3.1 3.446-4.127 5.687h4.13V1.58zM4.49 7.267h4.902a20.045 20.045 0 0 1 3.264-5.31c-3.37.76-6.256 2.792-8.166 5.31zm25.93 7.947a14.367 14.367 0 0 0-1.876-6.37l-5.345.005a22.808 22.808 0 0 1 1.112 6.364h6.107zm-13.64 0h5.97a21.125 21.125 0 0 0-1.206-6.37H16.78v6.37zm0-7.947h4.13c-1.027-2.24-2.447-4.184-4.13-5.687v5.687zm2.563-5.31a20.033 20.033 0 0 1 3.265 5.31h4.902c-1.91-2.518-4.794-4.55-8.167-5.31zM1.58 16.786a14.36 14.36 0 0 0 1.876 6.37L8.8 23.15a22.817 22.817 0 0 1-1.112-6.365H1.58zm13.64 0H9.25c.078 2.243.496 4.382 1.205 6.37h4.764v-6.37zm0 7.946h-4.13c1.027 2.242 2.447 4.184 4.13 5.687v-5.687zm-2.564 5.31a20.047 20.047 0 0 1-3.264-5.31H4.49c1.91 2.517 4.795 4.55 8.166 5.31zm11.656-13.257a22.785 22.785 0 0 1-1.114 6.365l5.346.007a14.356 14.356 0 0 0 1.875-6.37H24.31zm-7.53 6.37h4.763a21.133 21.133 0 0 0 1.206-6.37h-5.97v6.37zm0 7.264c1.68-1.503 3.1-3.446 4.127-5.687h-4.13v5.687zm10.728-5.687h-4.902a20.04 20.04 0 0 1-3.265 5.31c3.373-.76 6.257-2.793 8.167-5.31z" fill="currentColor" fill-rule="evenodd"/>
</svg>
