<svg width="152" height="31" viewBox="0 0 152 31" xmlns="http://www.w3.org/2000/svg"><title>Linkmator</title><path d="M8.37 3.035L5.854 25.377l6.733-.264c.305.012.457.164.457.457l-.457 3.64c-.035.304-.188.462-.457.474l-10.827.386c-.246 0-.37-.11-.37-.334L3.94 3.14c.023-.14.06-.24.114-.298.052-.06.16-.094.325-.106l3.532-.123c.305.012.457.153.457.422zm11.02 3.11c-.433-.456-.65-1.044-.65-1.765 0-.72.29-1.365.87-1.934.58-.568 1.234-.852 1.96-.852.727 0 1.316.228 1.767.685.45.456.677 1.045.677 1.766 0 .72-.3 1.365-.897 1.933-.597.568-1.26.852-1.986.852s-1.306-.228-1.74-.686zm3.692 3.06l-2.285 20.268c-.024.164-.065.28-.123.35-.06.072-.17.113-.334.124l-3.533.123c-.258-.023-.387-.134-.387-.334l2.32-20.443c.047-.258.194-.398.44-.422l3.427-.122c.317.023.475.176.475.457zm9.615 0l-.193 1.617c1.687-1.488 3.305-2.232 4.85-2.232 1.97 0 3.212 1.078 3.728 3.234.14.586.21 1.14.21 1.66 0 .523-.017.942-.052 1.258l-1.687 14.73c-.047.294-.194.452-.44.475l-3.55.123c-.258-.023-.387-.134-.387-.334l1.6-13.922a7.27 7.27 0 0 0 .052-.826c0-.96-.225-1.614-.677-1.96-.45-.345-1.02-.518-1.712-.518s-1.413.146-2.163.44l-1.88 16.523c-.047.293-.194.45-.44.474l-3.55.123c-.26-.023-.387-.134-.387-.334l2.32-20.443c.047-.258.193-.398.44-.422l3.445-.122c.316.012.474.164.474.457zm25.77 20.426c0 .212-.158.317-.475.317l-3.744.123c-.176-.01-.305-.123-.387-.334L50.276 19.63l-1.107 9.843c-.023.164-.064.28-.123.35-.06.072-.17.113-.334.124l-3.532.123c-.258-.023-.387-.134-.387-.334L48.044.856c.023-.165.064-.282.123-.352.06-.07.17-.11.334-.123L51.945.26c.305.035.457.193.457.474l-2.004 17.79 4.676-9.21c.14-.283.334-.43.58-.44l3.64-.124c.292.035.438.17.438.404 0 .13-.023.246-.07.352l-5.256 9.123 4.008 10.793a.553.553 0 0 1 .053.21zM68.68 9.206l-.194 1.635c1.723-1.5 3.378-2.25 4.966-2.25s2.698.767 3.33 2.303c1.76-1.536 3.464-2.303 5.116-2.303 2.04 0 3.352 1.078 3.938 3.234a6.33 6.33 0 0 1 .246 1.67c0 .516-.018.932-.053 1.248l-1.688 14.73c-.047.294-.194.452-.44.475l-3.55.123c-.258-.023-.387-.134-.387-.334l1.6-13.922c.046-.398.07-.673.07-.826 0-.96-.23-1.614-.686-1.96-.458-.345-1.023-.518-1.697-.518-.674 0-1.345.123-2.013.37.035.28.053.582.053.904 0 .322-.018.642-.053.958l-1.687 14.73c-.047.294-.194.452-.44.475l-3.55.123c-.258-.023-.387-.134-.387-.334l1.6-13.922a7.27 7.27 0 0 0 .052-.826c0-.96-.225-1.614-.677-1.96-.45-.345-1.024-.518-1.72-.518-.7 0-1.422.146-2.172.44l-1.863 16.505c-.047.293-.194.45-.44.475l-3.55.14c-.26-.023-.387-.134-.387-.334l2.32-20.443c.047-.258.193-.398.44-.422l3.427-.122c.316.012.475.164.475.457zm36.474 0l-2.285 20.268c-.036.304-.188.463-.458.474l-3.55.123c-.247-.023-.37-.134-.37-.334l.334-2.39c-.54.914-1.128 1.617-1.766 2.11a3.44 3.44 0 0 1-2.154.737c-.797 0-1.476-.137-2.04-.413a3.936 3.936 0 0 1-1.38-1.09 5.573 5.573 0 0 1-.87-1.626c-.41-1.125-.614-2.663-.614-4.614 0-1.95.132-3.606.395-4.966.264-1.36.496-2.393.695-3.102.2-.71.466-1.44.8-2.19s.712-1.376 1.133-1.88c.96-1.148 2.174-1.722 3.64-1.722 1.09 0 1.92.26 2.495.782.574.522 1.055 1.292 1.442 2.312l.21-2.39c.024-.26.17-.4.44-.423l3.445-.122c.305.023.457.176.457.457zM94.432 21.95c0 2.8.75 4.2 2.25 4.2.656 0 1.19-.3 1.6-.905.41-.603.764-1.813 1.063-3.63.3-1.816.448-3.14.448-3.972 0-.832-.006-1.36-.018-1.582-.01-.222-.035-.518-.07-.887-.035-.37-.1-.68-.193-.932a4.79 4.79 0 0 0-.37-.763c-.304-.504-.796-.756-1.476-.756-.68 0-1.22.302-1.617.906-.4.603-.71 1.41-.933 2.417-.457 2.156-.685 4.125-.685 5.906zm16.435-13.132c.27-2.578.445-3.91.528-4 .082-.087.205-.136.37-.148l3.356-.123c.318.023.476.17.476.44-.223 1.3-.41 2.548-.563 3.743l4.096-.14c.28.012.42.164.42.457l-.49 2.795c-.048.28-.195.428-.44.44l-4.026.157c-.797 7.17-1.196 11.126-1.196 11.865 0 1.37.586 2.056 1.758 2.056.598 0 1.178-.092 1.74-.28.563-.187.915-.28 1.055-.28.247 0 .37.15.37.456l-.37 3.076c-.022.176-.066.305-.13.387-.065.08-.352.18-.862.298-.51.117-1.38.175-2.61.175-1.805 0-3.14-.42-4.008-1.256-.867-.838-1.3-2.09-1.3-3.753 0-1.664.462-5.895 1.388-12.692l-1.723.07c-.293-.01-.44-.158-.44-.44l.475-2.83c.035-.27.188-.41.457-.42l1.67-.054zm12.208 19.503c-.967-1.247-1.45-3.066-1.45-5.457 0-1.113.123-2.566.37-4.36.245-1.792.474-3.096.685-3.91.21-.815.51-1.612.896-2.39.387-.78.844-1.422 1.37-1.926 1.16-1.125 2.732-1.687 4.712-1.687 2.813 0 4.635 1.03 5.467 3.094.445 1.1.668 2.434.668 4 0 1.563-.12 3.183-.36 4.86-.24 1.675-.466 2.914-.677 3.717-.21.803-.507 1.59-.888 2.356-.38.768-.835 1.404-1.362 1.907-1.16 1.114-2.78 1.67-4.86 1.67-2.08 0-3.604-.624-4.57-1.872zm7.673-5.826c.13-.62.296-1.784.5-3.49.206-1.704.31-2.967.31-3.787 0-1.992-.722-2.988-2.163-2.988-.68 0-1.24.32-1.68.965-.44.645-.793 1.717-1.063 3.217-.54 3.047-.808 5.52-.808 7.418 0 1.9.715 2.848 2.144 2.848.68 0 1.245-.325 1.697-.976.45-.65.805-1.72 1.063-3.208zm20.25-9.264l-1.88-.193c-1.524 0-2.802.305-3.833.914l-1.74 15.505c-.047.293-.193.45-.44.475l-3.55.14c-.258-.023-.387-.134-.387-.334l2.32-20.443c.047-.258.194-.398.44-.422l3.427-.122c.317.012.475.164.475.457l-.21 1.81c.75-.76 1.476-1.356 2.18-1.784.702-.426 1.408-.64 2.117-.64.71 0 1.25.03 1.626.088.246.047.37.21.37.492 0 .81-.136 2.01-.405 3.603-.06.305-.23.457-.51.457z" fill="currentColor" fill-rule="evenodd"/></svg>
