<svg width="32" height="32" viewBox="0 0 32 32" xmlns="http://www.w3.org/2000/svg"><title>share</title><g fill="currentColor" fill-rule="evenodd"><path d="M12.848 19.053l-.205-1.94c-.014-.132-.322-3.3 1.825-5.638 1.348-1.47 3.34-2.264 5.927-2.366l.025-2.994 7.338 5.232-7.346 5.346v-3.122a8.884 8.884 0 0 0-.36-.007c-4.215 0-5.84 2.313-6.432 3.692l-.772 1.796zm8.576-10.986l-.017 2.026-.503.002c-2.533.013-4.443.702-5.677 2.047-.85.925-1.25 2.023-1.435 2.94 1.943-2.233 4.9-2.515 6.26-2.515.563 0 .922.046.938.048l.442.058v2.036l4.607-3.353-4.616-3.29zM21.36 25.923H4.183v-5.418h1.02v4.42H20.34v-4.42h1.02z"/></g></svg>
